PathFileType	4	(X/Y/Z)	/home/abdul/Desktop/myosuite/custom_workspace/IK/output/S11_12_2.trc
DataRate	CameraRate	NumFrames	NumMarkers	Units	OrigDataRate	OrigDataStartFrame	OrigNumFrames
200.0	200.0	56	3	mm	200.0	376	1500
Frame#	Time	V_Shoulder			V_Elbow			V_Wrist		
		X1	Y1	Z1	X2	Y2	Z2	X3	Y3	Z3

376	1.875	-94.84374918344555	561.5711006681294	284.4227873703216	-269.3189647738968	391.48329762572064	46.64167068370392	-111.10313318296502	184.55406984520152	106.26609500722174
377	1.88	-94.86883513766315	562.1554362279221	284.55839490165494	-269.4710020763444	391.7369504001562	46.91415866917225	-111.08878888880821	185.51585919545715	107.5442332783831
378	1.885	-94.8941212678563	562.743949130606	284.69555275258307	-269.6250536409218	391.99137913509514	47.19234058267367	-111.07972548657965	186.4826601387703	108.8368668864355
379	1.89	-94.91964974392226	563.3364450977876	284.8341720514798	-269.78104730120083	392.2465109115873	47.476173949494424	-111.07583991445841	187.45437158921823	110.14377628835575
380	1.895	-94.94546419736044	563.9327327012651	284.97416211832393	-269.9389067098294	392.5022759999183	47.76561289084503	-111.0770094464169	188.43091127790296	111.46473132136052
381	1.9	-94.97160960952355	564.5326236618913	285.1154306349268	-270.09855144729255	392.75860798414067	48.060608236429765	-111.08309200160734	189.41221587881273	112.79949103082977
382	1.905	-94.99813219182816	565.1359331344278	285.2578838222539	-270.2598971440917	393.01544387520073	48.36110764042124	-111.09392652957803	190.3982410475315	114.14780351938413
383	1.91	-95.02507925825678	565.7424799775391	285.40142662432584	-270.42285561608793	393.2727242122553	48.66705570003162	-111.10933347058213	191.3889613713772	115.50940581838105
384	1.915	-95.05249909052145	566.352087008146	285.5459628981496	-270.5873350127124	393.5303931518182	48.97839407587786	-111.12911528994383	192.3843702299173	116.88402378304139
385	1.92	-95.08044079629686	566.9645812393951	285.6913956090995	-270.75323997771125	393.78839854443186	49.29506161335253	-111.15305708514808	193.38447956519497	118.27137201235874
386	1.925	-95.10895416096683	567.5797941015857	285.8376270311382	-270.92047182205266	394.04669199861326	49.61699446423392	-111.18092726402469	194.38931956139038	119.67115379488024
387	1.93	-95.13808949336169	568.1975616454407	285.98455895123976	-271.08892870859444	394.30522893188544	49.94412620780004	-111.2124782921021	195.3989382340447	121.08306108137486
388	1.935	-95.16789746599686	568.8177247271907	286.1320928773542	-271.2585058480768	394.56396860876004	50.27638797074954	-111.24744750691804	196.41340092938458	122.50677448533015
389	1.94	-95.19842895035215	569.4401291749926	286.2801302492303	-271.4290957059798	394.822874165602	50.613708545279906	-111.28555799678817	197.43278973469663	123.94196331213377
390	1.945	-95.22973484775952	570.0646259362915	286.4285726513969	-271.60058821975707	395.0819126223663	50.95601450472799	-111.32651954125664	198.45720280112064	125.38828561770862
391	1.95	-95.26186591649166	570.6910712057928	286.57732202758694	-271.77287102593675	395.34105488126005	51.3032303162402	-111.3700296101811	199.48675358064617	126.84538829727505
392	1.955	-95.29487259566723	571.3193265337933	286.72628089587573	-271.94582969656005	395.60027571244643	51.65527845000949	-111.4157744181438	200.52156997951403	128.31290720481343
393	1.96	-95.32880482660727	571.949258914688	286.8753525637998	-272.11934798441143	395.8595537269699	52.01207948469227	-111.46343003062825	201.56179343063624	129.79046730369555
394	1.965	-95.36371187229554	572.5807408555473	287.0244413427141	-272.29330807647864	396.1188713371422	52.373552208701014	-111.51266351816165	202.60757788805367	131.27768284884198
395	1.97	-95.39964213560874	573.2136504247321	287.1734527606457	-272.46759085506915	396.3782147046927	52.739613717155635	-111.5631341543951	203.65908874685044	132.7741576006492
396	1.975	-95.43664297699468	573.8478712805883	287.3222937729042	-272.6420761659992	396.63757367704466	53.11017950436943	-111.61449465388014	204.7165016923299	134.27948507081038
397	1.98	-95.47476053228381	574.4832926803357	287.4708729697126	-272.81664309326464	396.8969417121352	53.48516355184112	-111.6663924451015	205.7800014826346	135.7932488000321
398	1.985	-95.51403953132522	575.1198094693412	287.6191007801337	-272.9911702395941	397.1563157922566	53.86447841182352	-111.71847097414235	206.84978066935236	137.31502266752565
399	1.99	-95.55452311813995	575.7573220510335	287.7668896715768	-273.16553601228225	397.41569632744563	54.24803528663964	-111.77037103419312	207.9260382609961	138.844371232023
400	1.995	-95.59625267328327	576.3957363377924	287.91415434418764	-273.33961891369614	397.67508704899967	54.63574410401835	-111.82173211596601	209.00897833457122	140.38085010394175
401	2.0	-95.63926763910365	577.0349636832103	288.0608119194414	-273.5132978358456	397.93449489374586	55.02751358882196	-111.87219377394821	210.09880860074915	141.92400634819342
402	2.005	-95.68360534857864	577.6749207961922	288.2067821222807	-273.6864523584064	398.1939298797295	55.423251331636386	-111.92139700331731	211.19573892845222	143.47337891700238
403	2.01	-95.7293008583976	578.3155296374217	288.35198745616896	-273.8589630495825	398.45340497403004	55.822863854789865	-111.9689856222526	212.2999798349129	145.02849911197544
404	2.015	-95.77638678694815	578.9567172987896	288.496353370452	-274.0307117691928	398.7129359534436	56.22625667645623	-112.01460765430737	213.41174094750707	146.5888910745387
405	2.02	-95.8248931578464	579.5984158664294	288.6398084194581	-274.2015819733656	398.97254125880323	56.63333437358283	-112.05791670546054	214.5312294438693	148.15407230373546
406	2.025	-95.87484724963241	580.2405622680732	288.7822844127948	-274.37145902021837	399.23224184372964	57.04400064445913	-112.0985733304411	215.65864847697867	149.7235542002628
407	2.03	-95.92627345223048	580.8830981054833	288.923716556342	-274.5402304759001	399.49206101862427	57.45815837180885	-112.13624638291549	216.79419559205584	151.29684263551047
408	2.035	-95.97919313074915	581.5259694727698	289.06404358347584	-274.7077864203643	399.75202429072715	57.87570968734352	-112.17061434414836	217.93806114223364	152.87343854425922
409	2.04	-96.03362449716967	582.1691267614525	289.20320787610075	-274.8740197522335	400.01215920106944	58.29655603875857	-112.20136662478987	219.09042671005307	154.45283853959427
410	2.045	-96.08958249044093	582.8125244531585	289.34115557510944	-275.03882649210715	400.27249515914673	58.720598260180395	-112.22820483450745	220.25146354189815	156.03453554849696
411	2.05	-96.14707866546941	583.4561209008982	289.4778366799339	-275.2021060836491	400.53306327613063	59.14773664708499	-112.25084401426885	221.42133100250703	157.61801946648953
412	2.055	-96.20612109145684	584.0998780998831	289.6132051368997	-275.3637616917772	400.79389619742176	59.577871036701644	-112.26901382619285	222.60017505669322	159.20277782963194
413	2.06	-96.26671426000478	584.7437614488921	289.7472189161386	-275.52370049725494	401.0550279353188	60.01090089488935	-112.28245969601758	223.78812678536974	160.7882965021004
414	2.065	-96.32885900336713	585.387739503205	289.8798400768678	-275.68183398696226	401.31649370254985	60.44672541042487	-112.29094390339056	224.98530094289907	162.37406037751683
415	2.07	-96.39255242319315	586.0317837201595	290.011034820888	-275.8380782390941	401.5783297473656	60.88524359756968	-112.29424661536063	226.1917945626851	163.95955409215003
416	2.075	-96.45778783006365	586.6758681983885	290.14077353420714	-275.99235420250216	401.8405731908448	61.32635440768595	-112.2921668586488	227.40768561778566	165.5442627480679
417	2.08	-96.5245546940816	587.3199694118229	290.2690308167418	-276.14458796935537	402.10326186700195	61.76995685054683	-112.28452342649149	228.6330317431541	167.1276726442917
418	2.085	-96.59283860673686	587.9640659395428	290.3957855001023	-276.2947110402535	402.36643416621376	62.215950125833416	-112.2711557160859	229.86786902591427	168.70927201398302
419	2.09	-96.66262125422115	588.6081381925695	290.5210206535126	-276.44266058087607	402.6301288824025	62.664233765128834	-112.25192449292133	231.11221086984042	170.28855176568487
420	2.095	-96.73388040232629	589.252168138688	290.6447235779693	-276.5883796692007	402.89438506432305	63.11470778451643	-112.22671257855222	232.36604693994673	171.8650062266396
421	2.1	-96.80658989301553	589.8961390263881	290.76688578878776	-276.73181753227004	403.1592418712082	63.56727284767579	-112.19542545865605	233.62934219279816	173.43813388621666
422	2.105	-96.8807196527125	590.5400351090024	290.88750298673517	-276.87292977144466	403.4247384329349	64.02183043916646	-112.15799180852306	234.90203599782959	175.00743813750518
423	2.11	-96.95623571231016	591.1838413701023	291.0065750179901	-277.01167857504487	403.69091371478476	64.47828304740723	-112.1143639334406	236.1840413546098	176.57242801515417
424	2.115	-97.03310023885722	591.8275432512069	291.12410582321894	-277.1480329172608	403.9578063867966	64.93653435670385	-112.06451812176542	237.4752442106098	178.13261892758493
425	2.12	-97.11127157883688	592.4711263828241	291.24010337609525	-277.2819687422039	404.2254546976325	65.39648944755183	-112.00845490881719	238.77550288363375	179.68753338174548
426	2.125	-97.19070431291068	593.1145763198346	291.35457961163223	-277.4134691319715	404.4938963528159	65.8580550043392	-111.94619925007706	240.0846475926469	181.23670169863456
427	2.13	-97.27134932195797	593.7578782821846	291.46755034473534	-277.54252445761324	404.7631683971433	66.32113952949663	-111.87780060253405	241.40248010028785	182.7796627178834
428	2.135	-97.35315386420133	594.4010169018375	291.57903517941685	-277.6691325119098	405.03330710101733	66.78565356308587	-111.80333291338732	242.7287734698902	184.31596448975498
429	2.14	-97.43606166316896	595.0439759768852	291.68905740914784	-277.7932986229106	405.3043478504097	67.25150990678107	-111.72289451568324	244.0632719393554	185.84516495299482
430	2.145	-97.52001300620641	595.6867382336912	291.79764390885157	-277.9150357472181	405.5763250401209	67.7186238511777	-111.63660793084044	245.40569091372177	187.36683259704938
431	2.15	-97.60494485321487	596.3292850978906	291.90482501907053	-278.0343645420641	405.849271969974	68.18691340536071	-111.54461957839273	246.7557170777665	188.88054710725163
